# xmcd
#
# Track frame offsets:
#	150
#	13210
#	25955
#	38455
#	52170
#	64065
#	75725
#	88105
#	99560
#	114070
#	127190
#	141720
#	155475
#	167935
#	181915
#	195032
#	208790
#	218400
#	233430
#	245900
#
# Disc length: 3447 seconds
#
# Revision: 1
# Processed by: cddbd v1.5.2PL0 Copyright (c) Steve Scherf et al.
# Submitted via: audiograbber 1.83.01
#
DISCID=140d7514
DTITLE=Various Artist - Blues And R&B Legends Volume Two
DYEAR=1995
DGENRE=Blues
TTITLE0=Mayfield, Percy - Please Send Me Someone To Love
TTITLE1=Dixon, Floyd - Old Memories
TTITLE2=Turner, Big Joe - Oke-She-Moke-She-Pop
TTITLE3=King, B.B. - You Upset Me Baby
TTITLE4=Washington, Dinah - New Blowtop Blues
TTITLE5=Belvin, Jesse - Confusin´ Blues
TTITLE6=Dupree, Champion Jack - Tongue Tied Blues
TTITLE7=Witherspoon, Jimmy - Fast Woman, Slow Gin
TTITLE8=Charles, Ray - Funny But I Still Love You
TTITLE9=Walker, T-Bone - I Got The Blues
TTITLE10=Brown, Ruth - 5-10-15 Hours
TTITLE11=Milton, Roy - Night And Day (I Miss You So)
TTITLE12=Liggins, Joe - Tears On My Pillow
TTITLE13=Mabon, Willie - Got To Have It
TTITLE14=Brown, Ruth - Big Town
TTITLE15=Milburn, Amos - Put Something In My Hand
TTITLE16=Crayton, Pee Wee - Eyes Full Of Tears
TTITLE17=Jordan, Louis - Heed My Warning
TTITLE18=Brown, Charles - Evening Shadows
TTITLE19=Salomon, Cliff "King" - But Officer!
EXTD=
EXTT0=
EXTT1=
EXTT2=
EXTT3=
EXTT4=
EXTT5=
EXTT6=
EXTT7=
EXTT8=
EXTT9=
EXTT10=
EXTT11=
EXTT12=
EXTT13=
EXTT14=
EXTT15=
EXTT16=
EXTT17=
EXTT18=
EXTT19=
PLAYORDER=
